<svg width="220" height="220" viewBox="0 0 220 220" fill="none" xmlns="http://www.w3.org/2000/svg">
<rect width="220" height="220" fill="#F4F4F4"/>
<path d="M69.0212 84.3843L32.1298 47.5009C35.4077 43.8136 38.6894 40.1243 42.3769 36.8445L79.2645 73.7297L69.0212 84.3843ZM45.2453 34.3856C49.7536 30.2868 54.6714 27.007 60.0007 23.7291L94.837 58.5669L82.1329 71.2708L45.2453 34.3856ZM97.2978 56.1061L63.2786 22.0931C67.785 19.6322 72.7067 17.5829 77.6226 15.943L107.541 45.861L97.2978 56.1061ZM125.576 58.5669L160.409 23.7291C165.742 27.007 170.656 30.2868 175.166 34.3856L138.278 71.2708L125.576 58.5669ZM151.392 136.021L188.28 172.908C186.236 175.371 182.541 179.06 180.495 181.517C179.263 182.749 178.857 183.566 178.446 183.566L141.562 146.683L151.392 136.021ZM138.69 148.733L175.578 185.616C171.067 189.718 166.151 192.993 160.822 196.268L125.988 161.435L138.69 148.733ZM123.117 164.303L157.133 198.318C152.626 200.777 144.017 204.057 142.783 204.47L112.868 174.55L123.117 164.303ZM110.408 177.005L139.103 205.695C120.247 211.435 100.166 211.435 81.7234 205.695L110.408 177.005ZM94.837 161.435L60.0007 196.268C54.6734 192.993 49.7536 189.718 45.2453 185.616L82.1329 148.733L94.837 161.435ZM128.031 86.8431L138.278 76.5981L148.524 86.8431L138.278 97.0901L128.031 86.8431ZM92.3781 133.153L82.1329 143.399L71.8858 133.153L82.1329 122.906L92.3781 133.153ZM70.2478 108.977C69.4288 109.796 69.4288 110.615 70.2478 111.434L79.2626 120.454L69.0193 130.701L48.5251 109.796L69.0193 89.304L79.2626 99.5509L70.2478 108.977ZM71.4763 86.8431L82.1329 76.1886L92.3781 86.4336L82.1329 96.6806L71.4763 86.8431ZM84.5918 74.1392L97.294 61.4333L107.539 71.6803L94.837 84.3862L84.5918 74.1392ZM125.576 84.3843L112.872 71.6784L123.119 61.4314L135.821 74.1373L125.576 84.3843ZM135.821 146.266L123.119 158.978L112.872 148.731L125.576 136.019L135.821 146.266ZM94.837 136.021L107.539 148.733L97.294 159.387L84.5918 146.683L94.837 136.021ZM93.6085 111.434C94.4294 110.615 94.4294 109.796 93.6085 108.977L84.5937 99.9585L94.8389 89.7115L107.541 102.417L100.989 108.977C100.166 109.796 100.166 110.615 100.989 111.434L107.541 117.994L94.8389 130.701L84.5937 120.454L93.6085 111.434ZM105.084 110.205L110.408 104.878L115.739 110.205L110.408 115.529L105.084 110.205ZM110.408 120.454L123.117 133.151L110.408 145.858L97.7073 133.151L110.408 120.454ZM126.805 108.977C125.986 109.796 125.986 110.615 126.805 111.434L135.82 120.454L125.574 130.701L112.87 117.994L119.428 111.434C120.247 110.615 120.247 109.796 119.428 108.977L112.87 102.417L125.574 89.7115L136.233 99.9585L126.805 108.977ZM97.7054 86.8431L110.406 74.1392L123.115 86.8431L110.406 99.549L97.7054 86.8431ZM130.9 110.205L138.69 102.419L146.482 110.205L138.69 117.994L130.9 110.205ZM89.9191 110.205L82.1329 117.994L74.3447 110.205L82.1329 102.419L89.9191 110.205ZM120.653 161.435L110.408 171.682L100.166 161.435L110.408 151.188L120.653 161.435ZM148.937 133.153L138.69 143.399L128.445 133.153L138.69 122.906L148.937 133.153ZM150.164 111.434C150.988 110.615 150.988 109.796 150.164 108.977L141.149 99.9585L151.394 89.7115L171.888 110.204L151.394 130.699L141.149 120.452L150.164 111.434ZM99.7568 58.5669L110.004 48.3218L120.247 58.5669L110.004 68.8139L99.7568 58.5669ZM153.859 133.153L175.578 111.434C176.397 110.615 176.397 109.796 175.578 108.977L153.859 87.2565L190.331 50.7769C216.556 86.0242 216.556 134.796 190.331 170.038L153.859 133.153ZM44.4263 108.977C43.6073 109.796 43.6073 110.615 44.4263 111.434L66.149 133.153L29.6747 169.632C3.44176 134.383 3.44176 85.6147 29.6747 50.3674L66.149 86.8431L44.4263 108.977ZM79.6759 146.266L42.7864 183.151C39.099 179.877 35.823 176.188 32.5431 172.499L69.4307 135.611L79.6759 146.266ZM97.2978 164.303L107.541 174.552L77.6226 204.472C72.7067 202.828 67.785 200.779 63.2786 198.32L97.2978 164.303ZM151.392 84.3843L141.147 74.1373L178.035 37.252C181.728 40.5318 185.006 44.2211 188.28 47.9066L151.392 84.3843ZM112.87 45.8591L142.785 15.941C147.707 17.5809 152.628 19.6284 157.135 22.0911L123.119 56.1061L112.87 45.8591ZM81.3139 14.3011C100.166 8.56629 120.247 8.56629 138.69 14.3011L110.004 42.9888L81.3139 14.3011Z" fill="#21A6AA"/>
</svg>
