<svg version="1.1" id="Layer_1" xmlns="http://www.w3.org/2000/svg" xmlns:xlink="http://www.w3.org/1999/xlink" x="0px" y="0px"
	 width="100%" viewBox="0 0 416 416" enable-background="new 0 0 416 416" xml:space="preserve">
<path fill="#FAFEFE" opacity="1.000000" stroke="none" 
	d="
M1.000000,161.000000 
	C1.000000,107.349297 1.000000,54.198597 1.000000,1.023948 
	C139.609055,1.023948 278.218109,1.023948 416.913574,1.023948 
	C416.913574,139.567383 416.913574,278.134827 416.913574,416.851135 
	C278.333466,416.851135 139.666748,416.851135 1.000000,416.851135 
	C1.000000,331.781891 1.000000,246.640945 1.000000,161.000000 
M68.659264,111.840813 
	C63.050552,106.274857 57.441845,100.708900 51.782135,95.092331 
	C-1.970891,166.030182 2.019588,264.906830 51.342144,328.063293 
	C75.000183,304.407166 98.722069,280.687195 122.619347,256.791870 
	C109.510658,243.686172 95.958305,230.151840 82.425308,216.598175 
	C78.179893,212.346268 78.183510,211.652313 82.478882,207.348145 
	C94.956375,194.845139 107.459259,182.367493 119.937668,169.865402 
	C121.061386,168.739563 122.080101,167.508896 122.827934,166.680847 
	C104.731621,148.358109 86.945488,130.349411 68.659264,111.840813 
M338.227936,211.010559 
	C337.255829,212.964127 336.688904,215.308701 335.244019,216.806030 
	C327.497284,224.833862 319.546600,232.665497 311.636841,240.535202 
	C306.000549,246.142944 300.317657,251.703812 295.404175,256.547577 
	C319.550354,280.694275 343.257446,304.401886 366.893616,328.038605 
	C422.610596,254.523117 413.222931,153.928818 366.321167,95.905647 
	C342.708435,119.527069 319.068481,143.175705 295.092438,167.160568 
	C300.088684,172.076981 305.477539,177.267151 310.739716,182.582718 
	C319.866333,191.801941 328.914581,201.098755 338.227936,211.010559 
M210.002274,79.766327 
	C228.313293,61.403667 246.624313,43.041008 265.497559,24.114544 
	C227.579803,13.264169 190.421829,13.117291 152.731400,24.102568 
	C153.492508,25.082785 153.835709,25.637236 154.284348,26.086344 
	C171.814255,43.634682 189.348175,61.179028 206.914062,78.691299 
	C207.565155,79.340401 208.540436,79.664330 210.002274,79.766327 
M183.841156,368.340942 
	C173.513382,378.665710 163.185608,388.990479 152.351425,399.821503 
	C190.430466,410.768890 227.588287,410.859436 264.445251,400.122375 
	C245.665421,381.317688 227.132812,362.760559 208.263092,343.865875 
	C200.516266,351.629822 192.428619,359.735321 183.841156,368.340942 
M241.776642,108.416374 
	C240.059250,109.843719 239.118942,111.077423 241.284607,113.189117 
	C249.023468,120.735016 256.585785,128.461975 263.743652,135.647385 
	C288.075256,111.318665 312.168915,87.227859 336.783112,62.616608 
	C328.522888,56.822880 319.881500,50.932495 311.449768,44.755863 
	C308.468933,42.572247 306.782410,43.272705 304.388702,45.688351 
	C283.764069,66.502068 263.002411,87.180008 241.776642,108.416374 
M88.837601,71.652817 
	C110.330368,93.164688 131.823135,114.676559 152.818634,135.690720 
	C161.408737,127.119522 169.622696,118.923653 177.483444,111.080215 
	C155.120300,88.715614 132.459534,66.053375 109.144951,42.737278 
	C100.085327,49.238701 90.487091,56.126640 80.241943,63.478825 
	C83.517639,66.584190 85.926102,68.867424 88.837601,71.652817 
M166.158264,300.341736 
	C162.145401,296.125671 158.132538,291.909576 154.761719,288.368073 
	C130.171738,312.943848 106.084213,337.017426 81.548607,361.538849 
	C90.733803,368.090912 100.295021,374.911224 108.816414,380.989807 
	C132.283386,357.502258 154.949051,334.816681 178.035965,311.709503 
	C174.598770,308.426331 170.628571,304.634033 166.158264,300.341736 
M247.340317,304.844055 
	C244.401459,307.222260 241.462616,309.600464 238.821579,311.737701 
	C262.696045,335.610168 285.267090,358.179291 308.547363,381.457550 
	C317.775452,374.854218 327.391876,367.972992 336.523132,361.438965 
	C311.853424,336.770294 287.806152,312.724091 263.497437,288.416412 
	C258.564545,293.434509 253.202881,298.888824 247.340317,304.844055 
M64.279709,79.778442 
	C61.513920,82.994835 58.748127,86.211220 56.682991,88.612808 
	C81.005180,112.930801 104.860680,136.782196 128.253601,160.171082 
	C134.489960,153.921600 141.140961,147.256622 146.920654,141.464752 
	C123.112617,117.653633 98.963501,93.501396 74.601151,69.135902 
	C71.700935,72.112015 68.224350,75.679588 64.279709,79.778442 
M352.546051,99.046288 
	C355.799438,96.014900 359.052826,92.983505 362.649353,89.632362 
	C355.617065,82.057777 349.200439,75.146332 343.300568,68.791504 
	C318.674164,93.420898 294.509338,117.588669 270.968109,141.132751 
	C277.137878,147.318558 283.782440,153.980392 290.690918,160.906845 
	C310.888397,140.707596 331.467285,120.126945 352.546051,99.046288 
M69.119987,349.395874 
	C70.937607,351.761932 72.755226,354.127991 74.037575,355.797272 
	C99.311577,330.512482 123.471085,306.342621 146.972412,282.831268 
	C140.812759,276.686401 134.151947,270.041595 127.730057,263.635132 
	C104.282867,287.087250 80.418785,310.956360 56.231068,335.149170 
	C60.178814,339.500305 64.419525,344.174347 69.119987,349.395874 
M319.841675,333.658234 
	C327.093201,340.957245 334.344727,348.256287 341.994781,355.956512 
	C348.979431,348.592529 355.544464,341.670929 361.414215,335.482391 
	C337.043732,311.115540 313.164642,287.240051 289.782166,263.861053 
	C283.539124,270.118744 276.884003,276.789459 269.932587,283.757111 
	C286.158203,299.980133 302.749908,316.569183 319.841675,333.658234 
M154.453140,77.046860 
	C164.057007,86.723488 173.660889,96.400124 182.879654,105.688736 
	C189.906433,98.661545 196.682205,91.885376 203.603577,84.963600 
	C184.970566,66.344521 166.048477,47.401527 147.035278,28.550411 
	C146.166870,27.689396 144.197754,26.954102 143.215073,27.346565 
	C134.344177,30.889429 125.579155,34.697388 116.112068,38.712173 
	C129.282501,51.880409 141.617798,64.213646 154.453140,77.046860 
M125.265572,389.328674 
	C130.620895,391.562256 136.052338,393.633362 141.301895,396.092712 
	C144.263794,397.480316 146.050842,396.651764 148.191772,394.492493 
	C166.107941,376.422913 184.135330,358.463593 202.121948,340.463776 
	C202.773865,339.811371 203.350739,339.083954 203.669327,338.723389 
	C196.687302,331.762512 189.991470,325.086945 183.945328,319.059143 
	C162.003937,340.981750 139.830948,363.135742 117.499382,385.448212 
	C119.599953,386.505829 122.094452,387.761780 125.265572,389.328674 
M216.481567,82.930260 
	C215.687973,83.771858 214.894379,84.613464 214.503494,85.027977 
	C221.365784,91.892464 228.138702,98.667564 234.021286,104.552032 
	C255.852814,82.719711 277.997253,60.574459 300.426514,38.144367 
	C293.013367,34.932613 285.080475,31.613754 277.259033,28.050220 
	C274.029724,26.578911 271.954773,27.312622 269.496307,29.801968 
	C252.080582,47.436352 234.499756,64.907677 216.481567,82.930260 
M245.546890,328.953156 
	C241.990463,325.222015 238.434036,321.490906 235.396530,318.304199 
	C228.190292,325.475983 221.400436,332.233368 214.480240,339.120453 
	C233.010742,357.633270 251.854034,376.491241 270.781219,395.264679 
	C271.664948,396.141235 273.591675,396.999268 274.535034,396.621887 
	C283.438324,393.060150 292.233398,389.227936 301.772919,385.170349 
	C282.740906,366.141327 264.393921,347.797241 245.546890,328.953156 
M115.952156,240.547867 
	C119.885750,244.738312 123.819351,248.928757 127.466751,252.814316 
	C134.930115,245.338837 141.494812,238.763458 148.507797,231.739075 
	C143.554977,226.841522 138.485001,221.592010 133.145813,216.632294 
	C129.640442,213.376022 129.746872,210.747269 133.200714,207.537720 
	C138.514297,202.600006 143.563248,197.377518 148.831024,192.170532 
	C141.560028,184.993591 134.868652,178.388809 128.957657,172.554291 
	C115.386185,185.911697 101.824654,199.259338 88.097206,212.770294 
	C97.076248,221.723938 106.264183,230.885895 115.952156,240.547867 
M311.047333,231.547333 
	C317.504395,225.125076 323.961456,218.702820 329.802887,212.892868 
	C316.002136,199.051468 302.651459,185.661438 289.961884,172.934494 
	C283.677551,179.236526 277.037445,185.895370 269.926788,193.026077 
	C274.618225,197.560516 279.671814,202.613571 284.918945,207.456955 
	C288.397980,210.668335 288.320007,213.388977 284.875702,216.602936 
	C279.541992,221.579971 274.449677,226.815704 269.779144,231.424530 
	C276.883179,238.547867 283.527618,245.210388 290.506927,252.208649 
	C296.958435,245.718262 303.752930,238.882812 311.047333,231.547333 
M164.446274,198.039246 
	C167.620239,201.215012 170.648407,204.555939 174.007751,207.521744 
	C177.623703,210.714050 177.462555,213.331436 173.960999,216.531494 
	C168.601364,221.429596 163.524948,226.637634 158.803162,231.250229 
	C166.070114,238.504837 172.728851,245.152267 178.959991,251.372803 
	C186.888504,243.432190 195.150650,235.157440 203.626770,226.668396 
	C200.224243,223.310242 196.507950,219.507980 192.639236,215.867645 
	C189.673065,213.076599 189.822906,210.557144 192.704483,207.864563 
	C196.583908,204.239563 200.390656,200.536789 203.551682,197.514603 
	C194.847290,188.842270 186.546631,180.572189 178.857208,172.911072 
	C172.650192,179.127625 166.007126,185.780899 158.545578,193.253906 
	C160.055054,194.450821 162.000366,195.993317 164.446274,198.039246 
M217.471191,200.060043 
	C220.061768,202.651062 222.543762,205.363586 225.271317,207.801346 
	C228.439392,210.632767 228.615524,213.119553 225.393173,216.092957 
	C221.489578,219.694977 217.844482,223.577133 214.634369,226.790649 
	C222.975372,235.152298 231.256332,243.453751 239.125290,251.342163 
	C245.411469,245.073135 252.076752,238.426041 259.413666,231.109131 
	C254.434372,226.357498 249.248947,221.221832 243.848022,216.323776 
	C240.473877,213.263809 240.485138,210.724579 243.854340,207.670715 
	C249.256165,202.774414 254.444092,197.642120 259.105347,193.197906 
	C251.662521,185.804550 244.900101,179.087067 238.664703,172.893127 
	C230.986023,180.591492 222.805008,188.793488 214.230881,197.389587 
	C214.880371,197.905685 215.926514,198.737000 217.471191,200.060043 
M199.342911,273.157532 
	C202.368713,276.415131 205.394516,279.672760 208.223846,282.718842 
	C217.199921,273.700897 225.401291,265.461273 233.280914,257.544891 
	C225.364548,249.621735 217.156189,241.406342 208.849274,233.092300 
	C200.992401,241.305313 192.882782,249.782547 184.546082,258.497131 
	C188.910645,262.820129 193.876709,267.738861 199.342911,273.157532 
M227.156815,159.342133 
	C221.208649,153.351334 215.260498,147.360535 209.552017,141.611115 
	C200.853882,150.328003 192.643448,158.556152 185.278320,165.937164 
	C193.015182,174.189484 201.057281,182.767410 208.672501,190.889999 
	C217.119827,182.442581 225.321381,174.240936 234.022873,165.539368 
	C232.119064,163.835556 229.887787,161.838684 227.156815,159.342133 
M174.953613,124.454193 
	C169.452164,129.934998 163.950714,135.415802 159.208405,140.140305 
	C166.322235,147.284576 172.951752,153.942444 179.404495,160.422791 
	C187.186142,152.622742 195.381912,144.407562 202.988892,136.782578 
	C196.460175,130.209869 189.721817,123.426094 182.677795,116.334595 
	C180.486496,118.645790 177.969925,121.300056 174.953613,124.454193 
M249.658463,151.158295 
	C252.979630,147.963287 256.300812,144.768280 259.047577,142.125854 
	C250.206818,133.286438 241.943237,125.024109 234.125320,117.207390 
	C227.850220,123.481216 221.173157,130.156937 215.421432,135.907486 
	C223.410660,143.940063 231.679611,152.253860 240.362427,160.983780 
	C243.000824,158.186615 246.079559,154.922623 249.658463,151.158295 
M222.953979,278.453735 
	C219.905106,281.419769 216.856216,284.385834 214.127960,287.039978 
	C221.317627,294.207581 228.016403,300.885803 233.979172,306.830292 
	C242.033508,298.758301 250.325806,290.447845 257.815491,282.941772 
	C251.627213,276.712921 245.005966,270.048279 237.995743,262.992096 
	C233.408081,267.712250 228.431015,272.833008 222.953979,278.453735 
M186.183655,305.630432 
	C192.154663,299.665497 198.125671,293.700592 203.077057,288.754242 
	C194.467941,280.122681 186.195374,271.828552 178.419174,264.032074 
	C172.374756,270.040558 165.798889,276.577301 158.853012,283.481842 
	C166.449875,291.065277 174.275009,298.951172 182.260986,306.670654 
	C182.761749,307.154724 184.520065,306.337830 186.183655,305.630432 
M247.853851,261.664795 
	C253.275955,267.198364 258.698059,272.731934 263.984680,278.127228 
	C271.273834,270.897278 277.996887,264.228790 284.364075,257.913330 
	C277.600494,251.144501 270.837158,244.375916 264.734528,238.268539 
	C258.201172,244.712173 251.397751,251.422165 244.102631,258.617126 
	C244.997437,259.318146 246.177902,260.242981 247.853851,261.664795 
M159.159470,151.347107 
	C157.530594,149.332855 155.901703,147.318619 154.416885,145.482513 
	C146.707352,153.123734 139.997009,159.774643 133.453094,166.260574 
	C140.235657,173.027710 147.016052,179.792664 153.545151,186.306900 
	C160.090958,179.759842 166.865768,172.983765 173.908798,165.939407 
	C169.318878,161.399872 164.488815,156.622818 159.159470,151.347107 
M283.478363,168.098114 
	C283.506104,167.059509 283.996765,165.576340 283.491211,165.049942 
	C277.292297,158.595673 270.947479,152.281525 264.767395,146.058960 
	C257.752594,153.084946 251.063919,159.784302 244.440140,166.418655 
	C251.178787,172.970200 258.060638,179.660980 265.272491,186.672623 
	C270.881958,180.953766 276.942047,174.775513 283.478363,168.098114 
M133.595276,258.081787 
	C140.289627,264.676392 146.983978,271.270966 153.308411,277.501190 
	C160.186508,270.607147 166.860382,263.917816 173.036285,257.727600 
	C166.525269,251.216110 159.754776,244.445145 153.606964,238.296875 
	C147.033569,244.495193 140.141327,250.994186 133.595276,258.081787 
M200.453201,325.047943 
	C203.163071,327.904175 205.872940,330.760437 208.041428,333.046051 
	C215.312363,325.772949 221.956345,319.127014 228.132660,312.948853 
	C221.864456,306.649536 215.236252,299.988403 208.974869,293.695892 
	C202.617172,300.049713 195.970627,306.692200 188.857956,313.800537 
	C192.359512,317.192383 196.156281,320.870178 200.453201,325.047943 
M217.546646,123.048012 
	C221.715744,119.311005 225.884857,115.573990 229.427322,112.398659 
	C221.715286,104.708435 215.060684,98.072647 208.932327,91.961617 
	C202.672623,98.195335 196.014023,104.826317 189.792603,111.021919 
	C196.109818,117.359261 202.743835,124.014397 209.871918,131.165176 
	C212.070587,128.831024 214.558395,126.189949 217.546646,123.048012 
M158.329254,222.839584 
	C161.891327,219.395538 165.453400,215.951492 168.805420,212.710556 
	C163.462845,207.159851 158.548248,202.053802 154.407867,197.752151 
	C149.296829,202.893478 144.324661,207.895126 139.797684,212.448944 
	C144.209915,216.838959 149.119644,221.723969 154.211029,226.789734 
	C155.212219,225.835419 156.519867,224.589005 158.329254,222.839584 
M253.820587,207.366943 
	C251.946854,208.446045 250.073105,209.525146 248.422760,210.475601 
	C254.912201,216.987411 259.789337,221.881348 263.783905,225.889709 
	C268.676117,221.020157 273.659393,216.059982 278.138306,211.601807 
	C273.751770,207.224075 268.874268,202.356369 263.605438,197.098114 
	C260.707184,200.146317 257.514984,203.503632 253.820587,207.366943 
M219.135941,211.622604 
	C215.852478,208.208481 212.569031,204.794342 209.401001,201.500244 
	C205.543335,205.298874 202.171021,208.619598 199.024857,211.717606 
	C202.502640,215.238953 205.911148,218.690155 209.109940,221.929016 
	C212.454941,218.738022 215.796249,215.550568 219.135941,211.622604 
z"/>
<path fill="#01BDB4" opacity="1.000000" stroke="none" 
	d="
M68.909302,112.090775 
	C86.945488,130.349411 104.731621,148.358109 122.827934,166.680847 
	C122.080101,167.508896 121.061386,168.739563 119.937668,169.865402 
	C107.459259,182.367493 94.956375,194.845139 82.478882,207.348145 
	C78.183510,211.652313 78.179893,212.346268 82.425308,216.598175 
	C95.958305,230.151840 109.510658,243.686172 122.619347,256.791870 
	C98.722069,280.687195 75.000183,304.407166 51.342144,328.063293 
	C2.019588,264.906830 -1.970891,166.030182 51.782135,95.092331 
	C57.441845,100.708900 63.050552,106.274857 68.909302,112.090775 
z"/>
<path fill="#01BDB4" opacity="1.000000" stroke="none" 
	d="
M338.111816,210.686798 
	C328.914581,201.098755 319.866333,191.801941 310.739716,182.582718 
	C305.477539,177.267151 300.088684,172.076981 295.092438,167.160568 
	C319.068481,143.175705 342.708435,119.527069 366.321167,95.905647 
	C413.222931,153.928818 422.610596,254.523117 366.893616,328.038605 
	C343.257446,304.401886 319.550354,280.694275 295.404175,256.547577 
	C300.317657,251.703812 306.000549,246.142944 311.636841,240.535202 
	C319.546600,232.665497 327.497284,224.833862 335.244019,216.806030 
	C336.688904,215.308701 337.255829,212.964127 338.111816,210.686798 
z"/>
<path fill="#01BDB4" opacity="1.000000" stroke="none" 
	d="
M209.683456,79.953056 
	C208.540436,79.664330 207.565155,79.340401 206.914062,78.691299 
	C189.348175,61.179028 171.814255,43.634682 154.284348,26.086344 
	C153.835709,25.637236 153.492508,25.082785 152.731400,24.102568 
	C190.421829,13.117291 227.579803,13.264169 265.497559,24.114544 
	C246.624313,43.041008 228.313293,61.403667 209.683456,79.953056 
z"/>
<path fill="#01BDB4" opacity="1.000000" stroke="none" 
	d="
M184.091064,368.090881 
	C192.428619,359.735321 200.516266,351.629822 208.263092,343.865875 
	C227.132812,362.760559 245.665421,381.317688 264.445251,400.122375 
	C227.588287,410.859436 190.430466,410.768890 152.351425,399.821503 
	C163.185608,388.990479 173.513382,378.665710 184.091064,368.090881 
z"/>
<path fill="#00BDB4" opacity="1.000000" stroke="none" 
	d="
M242.029129,108.157417 
	C263.002411,87.180008 283.764069,66.502068 304.388702,45.688351 
	C306.782410,43.272705 308.468933,42.572247 311.449768,44.755863 
	C319.881500,50.932495 328.522888,56.822880 336.783112,62.616608 
	C312.168915,87.227859 288.075256,111.318665 263.743652,135.647385 
	C256.585785,128.461975 249.023468,120.735016 241.284607,113.189117 
	C239.118942,111.077423 240.059250,109.843719 242.029129,108.157417 
z"/>
<path fill="#00BDB4" opacity="1.000000" stroke="none" 
	d="
M88.586082,71.401733 
	C85.926102,68.867424 83.517639,66.584190 80.241943,63.478825 
	C90.487091,56.126640 100.085327,49.238701 109.144951,42.737278 
	C132.459534,66.053375 155.120300,88.715614 177.483444,111.080215 
	C169.622696,118.923653 161.408737,127.119522 152.818634,135.690720 
	C131.823135,114.676559 110.330368,93.164688 88.586082,71.401733 
z"/>
<path fill="#01BDB4" opacity="1.000000" stroke="none" 
	d="
M166.408325,300.591736 
	C170.628571,304.634033 174.598770,308.426331 178.035965,311.709503 
	C154.949051,334.816681 132.283386,357.502258 108.816414,380.989807 
	C100.295021,374.911224 90.733803,368.090912 81.548607,361.538849 
	C106.084213,337.017426 130.171738,312.943848 154.761719,288.368073 
	C158.132538,291.909576 162.145401,296.125671 166.408325,300.591736 
z"/>
<path fill="#00BDB4" opacity="1.000000" stroke="none" 
	d="
M247.590759,304.593567 
	C253.202881,298.888824 258.564545,293.434509 263.497437,288.416412 
	C287.806152,312.724091 311.853424,336.770294 336.523132,361.438965 
	C327.391876,367.972992 317.775452,374.854218 308.547363,381.457550 
	C285.267090,358.179291 262.696045,335.610168 238.821579,311.737701 
	C241.462616,309.600464 244.401459,307.222260 247.590759,304.593567 
z"/>
<path fill="#01BDB4" opacity="1.000000" stroke="none" 
	d="
M64.513733,79.512802 
	C68.224350,75.679588 71.700935,72.112015 74.601151,69.135902 
	C98.963501,93.501396 123.112617,117.653633 146.920654,141.464752 
	C141.140961,147.256622 134.489960,153.921600 128.253601,160.171082 
	C104.860680,136.782196 81.005180,112.930801 56.682991,88.612808 
	C58.748127,86.211220 61.513920,82.994835 64.513733,79.512802 
z"/>
<path fill="#01BDB4" opacity="1.000000" stroke="none" 
	d="
M352.296082,99.296288 
	C331.467285,120.126945 310.888397,140.707596 290.690918,160.906845 
	C283.782440,153.980392 277.137878,147.318558 270.968109,141.132751 
	C294.509338,117.588669 318.674164,93.420898 343.300568,68.791504 
	C349.200439,75.146332 355.617065,82.057777 362.649353,89.632362 
	C359.052826,92.983505 355.799438,96.014900 352.296082,99.296288 
z"/>
<path fill="#01BDB4" opacity="1.000000" stroke="none" 
	d="
M68.890114,349.122131 
	C64.419525,344.174347 60.178814,339.500305 56.231068,335.149170 
	C80.418785,310.956360 104.282867,287.087250 127.730057,263.635132 
	C134.151947,270.041595 140.812759,276.686401 146.972412,282.831268 
	C123.471085,306.342621 99.311577,330.512482 74.037575,355.797272 
	C72.755226,354.127991 70.937607,351.761932 68.890114,349.122131 
z"/>
<path fill="#01BDB4" opacity="1.000000" stroke="none" 
	d="
M319.591675,333.408234 
	C302.749908,316.569183 286.158203,299.980133 269.932587,283.757111 
	C276.884003,276.789459 283.539124,270.118744 289.782166,263.861053 
	C313.164642,287.240051 337.043732,311.115540 361.414215,335.482391 
	C355.544464,341.670929 348.979431,348.592529 341.994781,355.956512 
	C334.344727,348.256287 327.093201,340.957245 319.591675,333.408234 
z"/>
<path fill="#01BDB4" opacity="1.000000" stroke="none" 
	d="
M154.203125,76.796867 
	C141.617798,64.213646 129.282501,51.880409 116.112068,38.712173 
	C125.579155,34.697388 134.344177,30.889429 143.215073,27.346565 
	C144.197754,26.954102 146.166870,27.689396 147.035278,28.550411 
	C166.048477,47.401527 184.970566,66.344521 203.603577,84.963600 
	C196.682205,91.885376 189.906433,98.661545 182.879654,105.688736 
	C173.660889,96.400124 164.057007,86.723488 154.203125,76.796867 
z"/>
<path fill="#01BDB4" opacity="1.000000" stroke="none" 
	d="
M124.927261,389.173218 
	C122.094452,387.761780 119.599953,386.505829 117.499382,385.448212 
	C139.830948,363.135742 162.003937,340.981750 183.945328,319.059143 
	C189.991470,325.086945 196.687302,331.762512 203.669327,338.723389 
	C203.350739,339.083954 202.773865,339.811371 202.121948,340.463776 
	C184.135330,358.463593 166.107941,376.422913 148.191772,394.492493 
	C146.050842,396.651764 144.263794,397.480316 141.301895,396.092712 
	C136.052338,393.633362 130.620895,391.562256 124.927261,389.173218 
z"/>
<path fill="#01BDB4" opacity="1.000000" stroke="none" 
	d="
M216.726562,82.680618 
	C234.499756,64.907677 252.080582,47.436352 269.496307,29.801968 
	C271.954773,27.312622 274.029724,26.578911 277.259033,28.050220 
	C285.080475,31.613754 293.013367,34.932613 300.426514,38.144367 
	C277.997253,60.574459 255.852814,82.719711 234.021286,104.552032 
	C228.138702,98.667564 221.365784,91.892464 214.503494,85.027977 
	C214.894379,84.613464 215.687973,83.771858 216.726562,82.680618 
z"/>
<path fill="#01BDB4" opacity="1.000000" stroke="none" 
	d="
M245.796906,329.203156 
	C264.393921,347.797241 282.740906,366.141327 301.772919,385.170349 
	C292.233398,389.227936 283.438324,393.060150 274.535034,396.621887 
	C273.591675,396.999268 271.664948,396.141235 270.781219,395.264679 
	C251.854034,376.491241 233.010742,357.633270 214.480240,339.120453 
	C221.400436,332.233368 228.190292,325.475983 235.396530,318.304199 
	C238.434036,321.490906 241.990463,325.222015 245.796906,329.203156 
z"/>
<path fill="#02BDB5" opacity="1.000000" stroke="none" 
	d="
M115.702133,240.297852 
	C106.264183,230.885895 97.076248,221.723938 88.097206,212.770294 
	C101.824654,199.259338 115.386185,185.911697 128.957657,172.554291 
	C134.868652,178.388809 141.560028,184.993591 148.831024,192.170532 
	C143.563248,197.377518 138.514297,202.600006 133.200714,207.537720 
	C129.746872,210.747269 129.640442,213.376022 133.145813,216.632294 
	C138.485001,221.592010 143.554977,226.841522 148.507797,231.739075 
	C141.494812,238.763458 134.930115,245.338837 127.466751,252.814316 
	C123.819351,248.928757 119.885750,244.738312 115.702133,240.297852 
z"/>
<path fill="#02BDB4" opacity="1.000000" stroke="none" 
	d="
M310.797363,231.797348 
	C303.752930,238.882812 296.958435,245.718262 290.506927,252.208649 
	C283.527618,245.210388 276.883179,238.547867 269.779144,231.424530 
	C274.449677,226.815704 279.541992,221.579971 284.875702,216.602936 
	C288.320007,213.388977 288.397980,210.668335 284.918945,207.456955 
	C279.671814,202.613571 274.618225,197.560516 269.926788,193.026077 
	C277.037445,185.895370 283.677551,179.236526 289.961884,172.934494 
	C302.651459,185.661438 316.002136,199.051468 329.802887,212.892868 
	C323.961456,218.702820 317.504395,225.125076 310.797363,231.797348 
z"/>
<path fill="#01BDB4" opacity="1.000000" stroke="none" 
	d="
M164.195969,197.787537 
	C162.000366,195.993317 160.055054,194.450821 158.545578,193.253906 
	C166.007126,185.780899 172.650192,179.127625 178.857208,172.911072 
	C186.546631,180.572189 194.847290,188.842270 203.551682,197.514603 
	C200.390656,200.536789 196.583908,204.239563 192.704483,207.864563 
	C189.822906,210.557144 189.673065,213.076599 192.639236,215.867645 
	C196.507950,219.507980 200.224243,223.310242 203.626770,226.668396 
	C195.150650,235.157440 186.888504,243.432190 178.959991,251.372803 
	C172.728851,245.152267 166.070114,238.504837 158.803162,231.250229 
	C163.524948,226.637634 168.601364,221.429596 173.960999,216.531494 
	C177.462555,213.331436 177.623703,210.714050 174.007751,207.521744 
	C170.648407,204.555939 167.620239,201.215012 164.195969,197.787537 
z"/>
<path fill="#01BDB4" opacity="1.000000" stroke="none" 
	d="
M217.221924,199.814178 
	C215.926514,198.737000 214.880371,197.905685 214.230881,197.389587 
	C222.805008,188.793488 230.986023,180.591492 238.664703,172.893127 
	C244.900101,179.087067 251.662521,185.804550 259.105347,193.197906 
	C254.444092,197.642120 249.256165,202.774414 243.854340,207.670715 
	C240.485138,210.724579 240.473877,213.263809 243.848022,216.323776 
	C249.248947,221.221832 254.434372,226.357498 259.413666,231.109131 
	C252.076752,238.426041 245.411469,245.073135 239.125290,251.342163 
	C231.256332,243.453751 222.975372,235.152298 214.634369,226.790649 
	C217.844482,223.577133 221.489578,219.694977 225.393173,216.092957 
	C228.615524,213.119553 228.439392,210.632767 225.271317,207.801346 
	C222.543762,205.363586 220.061768,202.651062 217.221924,199.814178 
z"/>
<path fill="#00BDB4" opacity="1.000000" stroke="none" 
	d="
M199.092834,272.907593 
	C193.876709,267.738861 188.910645,262.820129 184.546082,258.497131 
	C192.882782,249.782547 200.992401,241.305313 208.849274,233.092300 
	C217.156189,241.406342 225.364548,249.621735 233.280914,257.544891 
	C225.401291,265.461273 217.199921,273.700897 208.223846,282.718842 
	C205.394516,279.672760 202.368713,276.415131 199.092834,272.907593 
z"/>
<path fill="#00BDB4" opacity="1.000000" stroke="none" 
	d="
M227.406662,159.591980 
	C229.887787,161.838684 232.119064,163.835556 234.022873,165.539368 
	C225.321381,174.240936 217.119827,182.442581 208.672501,190.889999 
	C201.057281,182.767410 193.015182,174.189484 185.278320,165.937164 
	C192.643448,158.556152 200.853882,150.328003 209.552017,141.611115 
	C215.260498,147.360535 221.208649,153.351334 227.406662,159.591980 
z"/>
<path fill="#01BDB4" opacity="1.000000" stroke="none" 
	d="
M175.203491,124.204254 
	C177.969925,121.300056 180.486496,118.645790 182.677795,116.334595 
	C189.721817,123.426094 196.460175,130.209869 202.988892,136.782578 
	C195.381912,144.407562 187.186142,152.622742 179.404495,160.422791 
	C172.951752,153.942444 166.322235,147.284576 159.208405,140.140305 
	C163.950714,135.415802 169.452164,129.934998 175.203491,124.204254 
z"/>
<path fill="#01BDB4" opacity="1.000000" stroke="none" 
	d="
M249.408386,151.408463 
	C246.079559,154.922623 243.000824,158.186615 240.362427,160.983780 
	C231.679611,152.253860 223.410660,143.940063 215.421432,135.907486 
	C221.173157,130.156937 227.850220,123.481216 234.125320,117.207390 
	C241.943237,125.024109 250.206818,133.286438 259.047577,142.125854 
	C256.300812,144.768280 252.979630,147.963287 249.408386,151.408463 
z"/>
<path fill="#01BDB4" opacity="1.000000" stroke="none" 
	d="
M223.203979,278.203766 
	C228.431015,272.833008 233.408081,267.712250 237.995743,262.992096 
	C245.005966,270.048279 251.627213,276.712921 257.815491,282.941772 
	C250.325806,290.447845 242.033508,298.758301 233.979172,306.830292 
	C228.016403,300.885803 221.317627,294.207581 214.127960,287.039978 
	C216.856216,284.385834 219.905106,281.419769 223.203979,278.203766 
z"/>
<path fill="#01BDB4" opacity="1.000000" stroke="none" 
	d="
M185.938492,305.878296 
	C184.520065,306.337830 182.761749,307.154724 182.260986,306.670654 
	C174.275009,298.951172 166.449875,291.065277 158.853012,283.481842 
	C165.798889,276.577301 172.374756,270.040558 178.419174,264.032074 
	C186.195374,271.828552 194.467941,280.122681 203.077057,288.754242 
	C198.125671,293.700592 192.154663,299.665497 185.938492,305.878296 
z"/>
<path fill="#01BDB4" opacity="1.000000" stroke="none" 
	d="
M247.606110,261.416321 
	C246.177902,260.242981 244.997437,259.318146 244.102631,258.617126 
	C251.397751,251.422165 258.201172,244.712173 264.734528,238.268539 
	C270.837158,244.375916 277.600494,251.144501 284.364075,257.913330 
	C277.996887,264.228790 271.273834,270.897278 263.984680,278.127228 
	C258.698059,272.731934 253.275955,267.198364 247.606110,261.416321 
z"/>
<path fill="#01BDB4" opacity="1.000000" stroke="none" 
	d="
M159.409103,151.596436 
	C164.488815,156.622818 169.318878,161.399872 173.908798,165.939407 
	C166.865768,172.983765 160.090958,179.759842 153.545151,186.306900 
	C147.016052,179.792664 140.235657,173.027710 133.453094,166.260574 
	C139.997009,159.774643 146.707352,153.123734 154.416885,145.482513 
	C155.901703,147.318619 157.530594,149.332855 159.409103,151.596436 
z"/>
<path fill="#01BDB4" opacity="1.000000" stroke="none" 
	d="
M283.240234,168.347687 
	C276.942047,174.775513 270.881958,180.953766 265.272491,186.672623 
	C258.060638,179.660980 251.178787,172.970200 244.440140,166.418655 
	C251.063919,159.784302 257.752594,153.084946 264.767395,146.058960 
	C270.947479,152.281525 277.292297,158.595673 283.491211,165.049942 
	C283.996765,165.576340 283.506104,167.059509 283.240234,168.347687 
z"/>
<path fill="#01BDB4" opacity="1.000000" stroke="none" 
	d="
M133.422180,257.787476 
	C140.141327,250.994186 147.033569,244.495193 153.606964,238.296875 
	C159.754776,244.445145 166.525269,251.216110 173.036285,257.727600 
	C166.860382,263.917816 160.186508,270.607147 153.308411,277.501190 
	C146.983978,271.270966 140.289627,264.676392 133.422180,257.787476 
z"/>
<path fill="#02BDB4" opacity="1.000000" stroke="none" 
	d="
M200.203125,324.797974 
	C196.156281,320.870178 192.359512,317.192383 188.857956,313.800537 
	C195.970627,306.692200 202.617172,300.049713 208.974869,293.695892 
	C215.236252,299.988403 221.864456,306.649536 228.132660,312.948853 
	C221.956345,319.127014 215.312363,325.772949 208.041428,333.046051 
	C205.872940,330.760437 203.163071,327.904175 200.203125,324.797974 
z"/>
<path fill="#02BDB4" opacity="1.000000" stroke="none" 
	d="
M217.296417,123.298439 
	C214.558395,126.189949 212.070587,128.831024 209.871918,131.165176 
	C202.743835,124.014397 196.109818,117.359261 189.792603,111.021919 
	C196.014023,104.826317 202.672623,98.195335 208.932327,91.961617 
	C215.060684,98.072647 221.715286,104.708435 229.427322,112.398659 
	C225.884857,115.573990 221.715744,119.311005 217.296417,123.298439 
z"/>
<path fill="#03BEB5" opacity="1.000000" stroke="none" 
	d="
M158.078384,223.091095 
	C156.519867,224.589005 155.212219,225.835419 154.211029,226.789734 
	C149.119644,221.723969 144.209915,216.838959 139.797684,212.448944 
	C144.324661,207.895126 149.296829,202.893478 154.407867,197.752151 
	C158.548248,202.053802 163.462845,207.159851 168.805420,212.710556 
	C165.453400,215.951492 161.891327,219.395538 158.078384,223.091095 
z"/>
<path fill="#00BDB4" opacity="1.000000" stroke="none" 
	d="
M254.071701,207.113953 
	C257.514984,203.503632 260.707184,200.146317 263.605438,197.098114 
	C268.874268,202.356369 273.751770,207.224075 278.138306,211.601807 
	C273.659393,216.059982 268.676117,221.020157 263.783905,225.889709 
	C259.789337,221.881348 254.912201,216.987411 248.422760,210.475601 
	C250.073105,209.525146 251.946854,208.446045 254.071701,207.113953 
z"/>
<path fill="#00BDB4" opacity="1.000000" stroke="none" 
	d="
M219.136749,211.992859 
	C215.796249,215.550568 212.454941,218.738022 209.109940,221.929016 
	C205.911148,218.690155 202.502640,215.238953 199.024857,211.717606 
	C202.171021,208.619598 205.543335,205.298874 209.401001,201.500244 
	C212.569031,204.794342 215.852478,208.208481 219.136749,211.992859 
z"/>
</svg>