<?xml version="1.0" encoding="UTF-8"?>
<svg xmlns="http://www.w3.org/2000/svg" viewBox="0 0 150 150">

  <path fill="#0088d9" d="M25,90.3c-.82,0-1.47,.69-1.44,1.51,1.02,28.34,24.31,51,52.9,51s51.88-22.66,52.89-51c.03-.83-.62-1.52-1.45-1.52h-27.87c-.74,0-1.38,.61-1.44,1.35-.9,11.44-10.46,20.45-22.14,20.45-14.01,0-19.67-11.89-19.67-11.89-1.81-3.4-2.33-6.72-2.48-8.58-.06-.75-.69-1.32-1.44-1.32H25Z"/>

  <path fill="#ff932c" d="M111.87,15.4L50.56,49.3l3.68,31.8,58.53-32.37c.77-.42,1.24-1.23,1.24-2.11V16.67c0-1.1-1.18-1.8-2.15-1.27Z"/>

  <path fill="#e32851" d="M54.24,8.64c0-1.15-1.27-1.84-2.23-1.21L24.62,25.16c-.69,.44-1.1,1.21-1.1,2.02v52.47c0,.8,.65,1.44,1.44,1.44h29.28V8.64Z"/>

</svg>