<svg width="280" height="280" viewBox="0 0 280 280" fill="none" xmlns="http://www.w3.org/2000/svg">
<rect width="280" height="280" fill="#F4F4F4"/>
<g clip-path="url(#clip0_1669_162202)">
<path d="M14.22 157.06C13.9926 154.229 13.9325 151.388 14.04 148.55L18.1 102.55H33.17L29.04 148.95C28.15 158.95 32.04 166.17 42.12 166.17C52.38 166.17 57.8 158.88 58.69 149.96L62.97 102.52H78.03L73.86 149.41C72.18 167.41 60.22 180.95 40.86 180.95C25.78 180.95 16.06 171.2 14.21 157.1" fill="#2774AE"/>
<path d="M81.4902 141.48C83.4902 119.38 98.3602 101.06 124.11 101.06C131.13 100.961 138.02 102.956 143.9 106.79L142.18 125.04C136.24 117.23 129.18 115.96 122.67 115.96C106.67 115.96 97.8602 127.09 96.6002 141.18C95.3902 154.89 102.47 166.05 117.99 166.05C124.77 166.05 131.99 164.05 139.47 156.58L137.81 175.31C130.48 179.31 123.67 181.09 116.81 181.09C91.3302 181.09 79.6602 162.16 81.4902 141.48Z" fill="#2774AE"/>
<path d="M155.93 102.52H170.93L165.45 165.02H186.98C188.5 165.02 193.63 164.94 194.98 164.86C194.9 165.61 193.61 179.3 193.61 179.3H149.11L155.93 102.52Z" fill="#2774AE"/>
<path d="M234.22 131.18C234.691 130.144 235.063 129.066 235.33 127.96H235.57C235.662 129.058 235.852 130.146 236.14 131.21C236.97 134.71 242.82 154.15 242.82 154.15H223.82C223.82 154.15 233.99 131.69 234.19 131.15M238.04 98.97H237.04L195.89 179.25H211.89L217.65 167.12H246.65L250.27 179.3H266.2L238.04 98.97Z" fill="#2774AE"/>
</g>
<defs>
<clipPath id="clip0_1669_162202">
<rect width="252.17" height="82.09" fill="white" transform="translate(14 99)"/>
</clipPath>
</defs>
</svg>
