<svg width="250" height="250" viewBox="0 0 250 250" fill="none" xmlns="http://www.w3.org/2000/svg">
<rect width="250" height="250" fill="#F4F4F4"/>
<path d="M26.4999 172.8C23.4999 172.8 21.8999 170.9 21.8999 167.5V160.4H23.6999V167.4C23.6999 169.7 24.6999 170.9 26.4999 170.9C28.3999 170.9 29.2999 169.7 29.2999 167.5V160.4H31.0999V167.5C31.1999 170.9 29.4999 172.8 26.4999 172.8Z" fill="#012169"/>
<path d="M53.9999 172.6L49.0999 165C48.7999 164.5 48.3999 163.8 48.1999 163.5C48.1999 164 48.1999 165.6 48.1999 166.3V172.6H46.3999V160.4H48.2999L52.8999 167.8C53.1999 168.3 53.6999 169.2 53.8999 169.5C53.8999 169 53.8999 167.3 53.8999 166.6V160.3H55.6999V172.5H53.9999" fill="#012169"/>
<path d="M73.0002 160.4H71.2002V172.6H73.0002V160.4Z" fill="#012169"/>
<path d="M93.8998 172.6H91.9998L87.7998 160.4H89.7998L92.2998 168.2C92.4998 168.9 92.8998 170 92.9998 170.4C93.0998 170 93.4998 168.9 93.6998 168.2L96.1998 160.4H98.1998L93.8998 172.6Z" fill="#012169"/>
<path d="M112.6 172.6V160.4H120.5V162.2H114.5V165.2H118V167H114.5V170.8H120.8V172.6H112.6Z" fill="#012169"/>
<path d="M142.1 167.6L144.6 172.6H142.5L140.1 167.8H137.3V172.6H135.5V160.4H140.8C142.9 160.4 144.7 161.5 144.7 164C144.8 166 143.8 167.2 142.1 167.6ZM140.9 162.1H137.3V166H140.9C142.1 166 143 165.4 143 164C143 162.8 142.1 162.1 140.9 162.1Z" fill="#012169"/>
<path d="M163.5 172.8C161.7 172.8 160.2 172 159.2 170.8L160.5 169.5C161.3 170.4 162.5 170.9 163.7 170.9C165.4 170.9 166.2 170.3 166.2 169.1C166.2 168.2 165.5 167.7 163.4 167.1C160.8 166.3 159.6 165.7 159.6 163.5C159.6 161.4 161.4 160.1 163.6 160.1C165.3 160.1 166.5 160.7 167.6 161.8L166.3 163.1C165.5 162.3 164.7 161.9 163.5 161.9C162.1 161.9 161.5 162.6 161.5 163.4C161.5 164.3 162.1 164.7 164.2 165.3C166.6 166 168.1 166.8 168.1 169C168 171.3 166.6 172.8 163.5 172.8Z" fill="#012169"/>
<path d="M184.8 160.4H183V172.6H184.8V160.4Z" fill="#012169"/>
<path d="M204.9 162.2V172.6H203.1V162.2H199.5V160.4H208.5V162.2H204.9Z" fill="#012169"/>
<path d="M228.4 167.8V172.6H226.6V167.8L222.2 160.4H224.3L226.2 163.8C226.6 164.5 227.2 165.8 227.5 166.2C227.7 165.7 228.3 164.6 228.8 163.8L230.7 160.4H232.8L228.4 167.8Z" fill="#012169"/>
<path d="M27.9 151.4C26.3 151.4 24.5 151.5 22.6 151.6C20.7 151.7 19.1 151.8 17.8 151.8C17.5 151.8 17.1 151.8 16.6 151.7C16.1 151.6 15.8 151.3 15.8 150.7C15.8 150.3 16.1 149.8 16.6 149.4C17.1 149 18.2 148.6 20 148.3C20.6 148.2 21.2 148.1 21.8 147.9C22.4 147.7 22.9 147.4 23.4 146.9C23.9 146.4 24.3 145.7 24.6 144.8C24.9 143.9 25 142.6 25 141V88.3C25 87.8 24.7 87.4 24.2 87.1C23.7 86.8 23 86.7 22.2 86.5C21.4 86.4 20.6 86.3 19.7 86.3C18.8 86.3 18 86.2 17.3 86.1C16 86 15.2 85.8 14.7 85.7C14.2 85.6 14 85.2 14 84.6C14 84.2 14.2 83.8 14.5 83.5C14.8 83.2 15.2 83.1 15.7 82.9C16.1 82.8 16.6 82.7 17.1 82.7C17.6 82.7 18 82.6 18.4 82.6H28.6C31.4 82.6 34.2 82.5 37 82.3C39.8 82.1 43 82 46.6 82C52.5 82 58 82.7 63.2 84.2C68.4 85.7 72.9 88 76.7 91.1C80.6 94.2 83.6 98.3 85.8 103.1C88 108 89.2 113.8 89.2 120.5C89.2 124.7 88.3 128.6 86.4 132.4C84.6 136.1 82.1 139.4 78.9 142.1C75.8 144.9 72.1 147 67.9 148.7C63.7 150.3 59.2 151.1 54.4 151.1H27.9M34.6 137.4C34.6 139.3 35 141 35.8 142.4C36.6 143.8 37.7 145 39.1 145.9C40.4 146.8 42 147.5 43.7 148C45.4 148.4 47.2 148.7 49 148.7C50.5 148.7 52.3 148.5 54.3 148C56.3 147.6 58.4 146.9 60.6 145.9C62.8 145 64.9 143.7 67.1 142.1C69.3 140.5 71.2 138.6 72.9 136.4C74.6 134.2 76 131.6 77.1 128.7C78.1 125.8 78.7 122.4 78.7 118.6C78.7 114.8 78.2 111.3 77.1 108.2C76.1 105.1 74.6 102.3 72.8 99.8C71 97.3 68.9 95.2 66.6 93.4C64.2 91.6 61.8 90.1 59.2 88.9C56.7 87.7 54.1 86.8 51.4 86.3C48.8 85.7 46.3 85.5 44 85.5C41.7 85.5 39.9 85.6 38.6 85.8C37.3 86 36.4 86.3 35.8 86.6C35.2 86.9 34.8 87.3 34.7 87.8C34.6 88.2 34.5 88.7 34.5 89L34.6 137.4Z" fill="#012169"/>
<path d="M112 153.5C109.4 153.5 107.2 153.1 105.4 152.4C103.6 151.7 102.3 150.6 101.3 149.2C100.3 147.8 99.5999 146.1 99.1999 144.2C98.7999 142.3 98.5999 140.1 98.5999 137.7C98.5999 136 98.5999 134.1 98.6999 132C98.6999 129.9 98.7999 127.8 98.7999 125.7C98.7999 123.5 98.7999 121.4 98.8999 119.4C98.8999 117.3 98.9999 115.5 98.9999 113.9C98.9999 113.1 98.5999 112.6 97.8999 112.3C97.1999 112.1 96.3999 111.9 95.7999 111.7C94.4999 111.3 93.5999 111 93.0999 110.9C92.6999 110.7 92.3999 110.4 92.3999 110.1C92.3999 109.6 92.6999 109.3 93.1999 109.2C93.6999 109.1 94.3999 109.1 95.1999 109.1C95.9999 109.1 96.7999 109.1 97.5999 109.2C98.3999 109.3 99.1999 109.3 99.9999 109.3C100.8 109.3 101.7 109.3 102.5 109.2C103.3 109.1 104.2 109.1 105 109.1C105.8 109.1 106.2 109.3 106.4 109.5C106.6 109.8 106.7 110.4 106.7 111.2C106.7 116.2 106.7 121.2 106.6 126.2C106.5 131.2 106.5 136.2 106.5 141.2C106.5 143.5 107.3 145.3 108.8 146.5C110.4 147.7 112.5 148.3 115.3 148.3C118.4 148.3 120.9 148 122.6 147.4C124.4 146.8 125.7 146 126.6 145.1C127.5 144.2 128.1 143.1 128.3 141.9C128.6 140.7 128.7 139.5 128.7 138.4C128.7 134.4 128.7 130.4 128.8 126.4C128.9 122.4 128.9 118.4 128.9 114.4C128.9 114.1 128.8 113.8 128.7 113.6C128.6 113.4 128.3 113.2 127.9 113C127.5 112.9 126.9 112.7 126.2 112.5C125.5 112.3 124.4 112 123.1 111.7C122.7 111.6 122 111.3 121.1 111C120.2 110.7 119.8 110.3 119.8 109.9C119.8 109.5 120.1 109.3 120.6 109.2C121.1 109.1 121.7 109 122.3 109C123.3 109 124.2 109 125.2 109.1C126.1 109.2 127.1 109.2 128.1 109.2C129.2 109.2 130.3 109.2 131.4 109.1C132.5 109 133.6 109 134.7 109C135.1 109 135.6 109.1 136.2 109.4C136.8 109.7 137.1 110.3 137.1 111.4C137.1 117.1 137 122.7 136.9 128.4C136.8 134 136.7 139.7 136.7 145.4C136.7 146.6 137.1 147.3 137.8 147.6C138.5 147.9 139.1 148 139.6 148C141.8 148 143.3 148 144.1 148.1C145 148.2 145.4 148.5 145.4 149.1C145.4 149.5 145.2 149.8 144.9 150C144.6 150.1 144 150.3 143.2 150.4C139.2 151 136.1 151.5 133.9 151.9C131.6 152.3 130.2 152.6 129.7 152.6C129.3 152.6 129 152.4 128.9 152.1C128.8 151.8 128.8 151.3 128.8 150.8V148.2C128.8 147.3 128.5 146.9 128 146.9C127.6 146.9 126.9 147.2 126.1 147.9C125.3 148.6 124.2 149.3 122.9 150.2C121.6 151.1 120.1 151.8 118.3 152.5C116.2 153.1 114.2 153.5 112 153.5Z" fill="#012169"/>
<path d="M154.4 87.7C154.4 86.2 154.1 85.1 153.6 84.5C153 83.9 152.4 83.4 151.7 83.2C151 82.9 150.4 82.7 149.8 82.6C149.2 82.5 149 82.1 149 81.6C149 81.2 149.2 80.9 149.6 80.8C150 80.6 150.6 80.4 151.4 80.1L159 77.2C159.3 77.1 159.6 77 159.9 77C160.2 77 160.5 77 160.9 77C161.2 77 161.5 77.1 161.7 77.4C162 77.7 162.1 78.2 162.1 79V124.9C162.1 126.1 162.4 126.7 163.1 126.7C163.3 126.7 163.8 126.5 164.8 126C165.8 125.5 167 124.9 168.3 124.1C169.6 123.3 171.1 122.4 172.6 121.5C174.1 120.5 175.5 119.6 176.8 118.7C178.1 117.8 179.1 117 180 116.3C180.9 115.6 181.3 115 181.3 114.7C181.3 114 181.1 113.4 180.6 113C180.1 112.6 179.7 112.3 179.1 112C178.6 111.7 178.1 111.5 177.6 111.2C177.2 110.9 176.9 110.6 176.9 110.1C176.9 109.8 177.1 109.5 177.4 109.3C177.7 109.1 178.1 109 178.5 109C179.7 109 181.1 109 182.6 109.1C184.1 109.2 185.6 109.2 187.1 109.2C188.5 109.2 190 109.2 191.5 109.1C193 109 194.4 109 195.5 109C196 109 196.5 109.1 197 109.2C197.4 109.3 197.7 109.7 197.7 110.3C197.7 110.6 197.5 110.9 197.1 111.1C196.7 111.4 196.2 111.6 195.6 111.8C195 112 194.4 112.2 193.8 112.4C193.2 112.6 192.7 112.8 192.3 112.9C191.5 113.3 189.9 114.1 187.5 115.4C185.1 116.7 182.7 118.1 180.2 119.6C177.7 121.1 175.5 122.5 173.5 123.8C171.6 125.1 170.6 125.9 170.6 126.2C170.6 126.6 170.7 126.9 170.9 127.2C171.1 127.5 171.3 127.7 171.5 127.8L190.9 145.4C192 146.4 193.1 147.2 194.2 147.8C195.3 148.3 196.2 148.8 197.1 149.1C197.9 149.4 198.6 149.7 199.1 149.9C199.6 150.1 199.8 150.4 199.8 150.8C199.8 151.5 198.8 151.9 196.9 151.9C195.7 151.9 194.4 151.8 193 151.7C191.6 151.6 190 151.5 188.3 151.5C186.8 151.5 185.4 151.6 184 151.7C182.7 151.8 181.3 151.9 180 151.9C178.8 151.9 177.9 151.8 177.4 151.7C176.9 151.6 176.6 151.3 176.6 150.8C176.6 150.3 176.9 149.9 177.5 149.7C178.1 149.5 178.9 149.3 179.9 149.2C180.5 149.1 181 148.9 181.4 148.6C181.8 148.3 182 148 182 147.6C182 147.2 181.6 146.6 180.8 145.8L163.9 129.8C163.4 129.4 163.1 129.1 162.9 129.1C162.4 129.1 162.1 129.3 162.1 129.7V145.6C162.1 146.9 162.4 147.7 162.9 148.2C163.5 148.7 164 149 164.5 149.1C165.4 149.4 166.2 149.6 166.8 149.7C167.4 149.8 167.8 150.1 167.8 150.7C167.8 151.1 167.5 151.4 167 151.6C166.4 151.7 165.9 151.8 165.3 151.8C164 151.8 162.7 151.7 161.5 151.6C160.3 151.5 159.1 151.4 157.8 151.4C156.4 151.4 155 151.5 153.5 151.6C152 151.7 150.7 151.8 149.7 151.8C149.3 151.8 148.8 151.7 148.1 151.6C147.4 151.5 147 151.2 147 150.6C147 150.1 147.2 149.7 147.6 149.5C148 149.3 148.5 149.1 149.1 149C149.8 148.8 150.6 148.6 151.2 148.4C151.9 148.2 152.5 148 153 147.7C153.5 147.4 153.9 146.9 154.2 146.4C154.5 145.8 154.6 144.9 154.6 143.7V87.7" fill="#012169"/>
<path d="M207.2 125.4C207.1 125.8 207 126.3 207 127C207 127.7 207 128.5 207 129.4C207 131.8 207.2 134.1 207.6 136.4C208 138.6 208.8 140.6 209.9 142.4C211.1 144.1 212.7 145.5 214.8 146.6C216.9 147.7 219.7 148.2 223.1 148.2C225.3 148.2 226.9 148 228.1 147.5C229.3 147.1 230.2 146.5 230.9 146C231.6 145.4 232.1 144.9 232.5 144.4C232.9 143.9 233.3 143.7 233.7 143.7C234.4 143.7 234.7 144 234.7 144.6C234.7 144.8 234.4 145.4 233.8 146.3C233.2 147.2 232.2 148.2 230.9 149.3C229.6 150.4 227.9 151.4 225.8 152.2C223.7 153.1 221.3 153.5 218.4 153.5C212.2 153.5 207.4 151.5 204 147.4C200.6 143.3 198.9 137.8 198.9 130.7C198.9 128.1 199.3 125.4 200.1 122.6C200.9 119.8 202.2 117.3 203.8 115C205.5 112.7 207.6 110.8 210.1 109.3C212.6 107.8 215.7 107.1 219.2 107.1C222.4 107.1 225.1 107.7 227.3 108.9C229.5 110.1 231.3 111.5 232.6 113.2C233.9 114.9 234.9 116.6 235.5 118.4C236.1 120.2 236.4 121.7 236.4 122.9C236.4 123.9 236.3 124.6 236 125C235.7 125.3 235.1 125.5 234.2 125.5L207.2 125.4ZM217.9 122.1C220.4 122.1 222.3 122 223.8 121.8C225.3 121.6 226.5 121.3 227.3 120.8C228.1 120.4 228.7 119.8 228.9 119.1C229.2 118.4 229.3 117.6 229.3 116.5C229.3 114.6 228.5 112.9 226.9 111.6C225.3 110.3 223.4 109.6 221 109.6C219 109.6 217.2 110 215.6 110.9C214 111.8 212.7 112.8 211.6 114C210.5 115.2 209.7 116.4 209.1 117.7C208.5 119 208.2 120.1 208.2 120.9C208.2 121.1 208.3 121.3 208.4 121.4C208.5 121.5 208.9 121.6 209.5 121.7C210.1 121.8 211.1 121.8 212.4 121.9C213.6 122 215.5 122.1 217.9 122.1Z" fill="#012169"/>
</svg>
