<svg width="210" height="210" viewBox="0 0 210 210" fill="none" xmlns="http://www.w3.org/2000/svg">
<rect width="210" height="210" fill="#D9D9D9"/>
<g clip-path="url(#clip0_1669_162202)">
<path d="M14 100.6H25.43V88.8H52.34V79H14V100.6Z" fill="#FF0000"/>
<path d="M14 132H52.34V122.2H25.43V110.4H14V132Z" fill="#FF0000"/>
<path d="M25.4302 100.6H50.0402V110.4H25.4302V100.6Z" fill="#FF0000"/>
<path d="M100 83.87C98.3744 82.3093 96.4394 81.1067 94.3201 80.34C91.592 79.3798 88.7114 78.9257 85.8201 79H62.1401V132H73.5701V110.4H85.8201C88.698 110.47 91.5646 110.016 94.2801 109.06C96.4137 108.298 98.3627 107.096 100 105.53C101.423 104.122 102.513 102.414 103.19 100.53C104.523 96.7714 104.523 92.6687 103.19 88.91C102.515 87.0135 101.425 85.2916 100 83.87ZM92.0001 97.73C91.4139 98.5142 90.6356 99.1341 89.7401 99.5301C88.6987 99.9752 87.5965 100.262 86.4701 100.38C85.1891 100.531 83.9001 100.605 82.6101 100.6H73.5701V88.8H82.6201C83.9101 88.7955 85.1991 88.869 86.4801 89.0201C87.6079 89.1365 88.711 89.4266 89.7501 89.88C90.6434 90.2703 91.419 90.8874 92.0001 91.67C92.5995 92.5527 92.9009 93.6039 92.8601 94.67C92.9139 95.7564 92.612 96.8307 92.0001 97.73Z" fill="#FF0000"/>
<path d="M169.47 122.2V79H158.04V132H196.38V122.2H169.47Z" fill="#FF0000"/>
<path d="M111.42 100.6H122.85V88.8H149.76V79H111.42V100.6Z" fill="#FF0000"/>
<path d="M111.42 110.4H122.85V132H111.42V110.4Z" fill="#FF0000"/>
<path d="M122.85 100.6H147.46V110.4H122.85V100.6Z" fill="#FF0000"/>
</g>
<defs>
<clipPath id="clip0_1669_162202">
<rect width="182.4" height="53" fill="white" transform="translate(14 79)"/>
</clipPath>
</defs>
</svg>
