<?xml version="1.0" encoding="utf-8"?>
<!-- Generator: Adobe Illustrator 16.0.0, SVG Export Plug-In . SVG Version: 6.00 Build 0)  -->
<svg version="1.2" baseProfile="tiny" id="Layer_1" xmlns="http://www.w3.org/2000/svg" xmlns:xlink="http://www.w3.org/1999/xlink"
	 x="0px" y="0px"   viewBox="0 0 295 175" xml:space="preserve">
<g>
	<g>
		<path fill="#21A6AA" d="M126.184,40.105L106.995,20.92c1.705-1.918,3.412-3.837,5.33-5.543l19.187,19.186L126.184,40.105z
			 M113.817,14.098c2.345-2.132,4.903-3.838,7.675-5.543l18.12,18.121l-6.608,6.608L113.817,14.098z M140.892,25.396L123.197,7.704
			c2.344-1.28,4.904-2.346,7.461-3.199l15.562,15.562L140.892,25.396z M155.601,26.676l18.118-18.121
			c2.774,1.705,5.33,3.411,7.676,5.543l-19.187,19.186L155.601,26.676z M169.029,66.964l19.187,19.187
			c-1.063,1.281-2.985,3.2-4.049,4.478c-0.641,0.641-0.852,1.066-1.066,1.066l-19.185-19.185L169.029,66.964z M162.422,73.576
			l19.187,19.185c-2.346,2.134-4.903,3.837-7.675,5.541l-18.119-18.119L162.422,73.576z M154.322,81.675l17.693,17.693
			c-2.344,1.279-6.822,2.985-7.464,3.2l-15.56-15.563L154.322,81.675z M147.711,88.282l14.926,14.923
			c-9.808,2.986-20.253,2.986-29.846,0L147.711,88.282z M139.612,80.183l-18.12,18.119c-2.771-1.704-5.33-3.407-7.675-5.541
			l19.187-19.185L139.612,80.183z M156.878,41.384l5.33-5.329l5.329,5.329l-5.329,5.33L156.878,41.384z M138.333,65.472l-5.329,5.33
			l-5.33-5.33l5.33-5.33L138.333,65.472z M126.822,52.897c-0.426,0.426-0.426,0.852,0,1.278l4.689,4.692l-5.328,5.33l-10.66-10.874
			l10.66-10.659l5.328,5.33L126.822,52.897z M127.461,41.384l5.543-5.542l5.329,5.329l-5.329,5.33L127.461,41.384z M134.283,34.776
			l6.607-6.609l5.329,5.33l-6.607,6.609L134.283,34.776z M155.601,40.105l-6.608-6.609l5.33-5.33l6.607,6.609L155.601,40.105z
			 M160.93,72.293l-6.607,6.612l-5.33-5.33l6.608-6.612L160.93,72.293z M139.612,66.964l6.607,6.612l-5.329,5.542l-6.607-6.608
			L139.612,66.964z M138.973,54.175c0.427-0.426,0.427-0.852,0-1.278l0,0l-4.689-4.691l5.329-5.33l6.607,6.609l-3.408,3.412
			c-0.428,0.426-0.428,0.852,0,1.278l0,0l3.408,3.412l-6.607,6.61l-5.329-5.33L138.973,54.175z M144.942,53.536l2.769-2.771
			l2.773,2.771l-2.773,2.769L144.942,53.536z M147.711,58.867l6.611,6.604l-6.611,6.61l-6.606-6.61L147.711,58.867z M156.24,52.897
			c-0.426,0.426-0.426,0.852,0,1.278l0,0l4.689,4.692l-5.329,5.33l-6.608-6.61l3.411-3.412c0.426-0.426,0.426-0.852,0-1.278
			l-3.411-3.412l6.608-6.609l5.544,5.33L156.24,52.897z M141.104,41.384l6.606-6.608l6.611,6.608l-6.611,6.609L141.104,41.384z
			 M158.37,53.536l4.052-4.05l4.053,4.05l-4.053,4.051L158.37,53.536z M137.054,53.536l-4.05,4.051l-4.051-4.051l4.051-4.05
			L137.054,53.536z M153.04,80.183l-5.329,5.33l-5.327-5.33l5.327-5.33L153.04,80.183z M167.752,65.472l-5.33,5.33l-5.329-5.33
			l5.329-5.33L167.752,65.472z M168.39,54.175c0.429-0.426,0.429-0.852,0-1.278l-4.689-4.691l5.329-5.33l10.66,10.659l-10.66,10.661
			l-5.329-5.33L168.39,54.175z M142.171,26.676l5.33-5.329l5.328,5.329l-5.328,5.33L142.171,26.676z M170.312,65.472l11.297-11.297
			c0.426-0.426,0.426-0.852,0-1.278l-11.297-11.298l18.971-18.975c13.641,18.334,13.641,43.703,0,62.034L170.312,65.472z
			 M113.391,52.897c-0.426,0.426-0.426,0.852,0,1.278l11.299,11.297l-18.972,18.975c-13.645-18.335-13.645-43.702,0-62.036
			l18.972,18.973L113.391,52.897z M131.726,72.293l-19.188,19.186c-1.918-1.703-3.622-3.622-5.328-5.541l19.187-19.187
			L131.726,72.293z M140.892,81.675l5.328,5.331l-15.562,15.563c-2.557-0.855-5.117-1.921-7.461-3.2L140.892,81.675z
			 M169.029,40.105l-5.329-5.33l19.187-19.186c1.921,1.706,3.626,3.625,5.329,5.542L169.029,40.105z M148.992,20.066l15.56-15.562
			c2.56,0.853,5.12,1.918,7.464,3.199l-17.693,17.693L148.992,20.066z M132.578,3.651c9.806-2.983,20.251-2.983,29.844,0
			l-14.921,14.922L132.578,3.651z"/>
	</g>
</g>
</svg>
