<?xml version="1.0" encoding="utf-8"?>
<!-- Generator: Adobe Illustrator 16.0.0, SVG Export Plug-In . SVG Version: 6.00 Build 0)  -->
<svg version="1.2" baseProfile="tiny" id="Layer_1" xmlns="http://www.w3.org/2000/svg" xmlns:xlink="http://www.w3.org/1999/xlink"
	 x="0px" y="0px"   viewBox="0 0 295 175" xml:space="preserve">
<g>
	<g>
		<path fill="#21A6AA" d="M126.184,40.105L106.995,20.92c1.705-1.918,3.412-3.837,5.33-5.543l19.187,19.186L126.184,40.105z
			 M113.817,14.098c2.345-2.132,4.903-3.838,7.675-5.543l18.12,18.121l-6.608,6.608L113.817,14.098z M140.892,25.396L123.197,7.704
			c2.344-1.28,4.904-2.346,7.461-3.199l15.562,15.562L140.892,25.396z M155.601,26.676l18.118-18.121
			c2.774,1.705,5.33,3.411,7.676,5.543l-19.187,19.186L155.601,26.676z M169.029,66.964l19.187,19.187
			c-1.063,1.281-2.985,3.2-4.049,4.478c-0.641,0.641-0.852,1.066-1.066,1.066l-19.185-19.185L169.029,66.964z M162.422,73.576
			l19.187,19.185c-2.346,2.134-4.903,3.837-7.675,5.541l-18.119-18.119L162.422,73.576z M154.322,81.675l17.693,17.693
			c-2.344,1.279-6.822,2.985-7.464,3.2l-15.56-15.563L154.322,81.675z M147.711,88.282l14.926,14.923
			c-9.808,2.986-20.253,2.986-29.846,0L147.711,88.282z M139.612,80.183l-18.12,18.119c-2.771-1.704-5.33-3.407-7.675-5.541
			l19.187-19.185L139.612,80.183z M156.878,41.384l5.33-5.329l5.329,5.329l-5.329,5.33L156.878,41.384z M138.333,65.472l-5.329,5.33
			l-5.33-5.33l5.33-5.33L138.333,65.472z M126.822,52.897c-0.426,0.426-0.426,0.852,0,1.278l4.689,4.692l-5.328,5.33l-10.66-10.874
			l10.66-10.659l5.328,5.33L126.822,52.897z M127.461,41.384l5.543-5.542l5.329,5.329l-5.329,5.33L127.461,41.384z M134.283,34.776
			l6.607-6.609l5.329,5.33l-6.607,6.609L134.283,34.776z M155.601,40.105l-6.608-6.609l5.33-5.33l6.607,6.609L155.601,40.105z
			 M160.93,72.293l-6.607,6.612l-5.33-5.33l6.608-6.612L160.93,72.293z M139.612,66.964l6.607,6.612l-5.329,5.542l-6.607-6.608
			L139.612,66.964z M138.973,54.175c0.427-0.426,0.427-0.852,0-1.278l0,0l-4.689-4.691l5.329-5.33l6.607,6.609l-3.408,3.412
			c-0.428,0.426-0.428,0.852,0,1.278l0,0l3.408,3.412l-6.607,6.61l-5.329-5.33L138.973,54.175z M144.942,53.536l2.769-2.771
			l2.773,2.771l-2.773,2.769L144.942,53.536z M147.711,58.867l6.611,6.604l-6.611,6.61l-6.606-6.61L147.711,58.867z M156.24,52.897
			c-0.426,0.426-0.426,0.852,0,1.278l0,0l4.689,4.692l-5.329,5.33l-6.608-6.61l3.411-3.412c0.426-0.426,0.426-0.852,0-1.278
			l-3.411-3.412l6.608-6.609l5.544,5.33L156.24,52.897z M141.104,41.384l6.606-6.608l6.611,6.608l-6.611,6.609L141.104,41.384z
			 M158.37,53.536l4.052-4.05l4.053,4.05l-4.053,4.051L158.37,53.536z M137.054,53.536l-4.05,4.051l-4.051-4.051l4.051-4.05
			L137.054,53.536z M153.04,80.183l-5.329,5.33l-5.327-5.33l5.327-5.33L153.04,80.183z M167.752,65.472l-5.33,5.33l-5.329-5.33
			l5.329-5.33L167.752,65.472z M168.39,54.175c0.429-0.426,0.429-0.852,0-1.278l-4.689-4.691l5.329-5.33l10.66,10.659l-10.66,10.661
			l-5.329-5.33L168.39,54.175z M142.171,26.676l5.33-5.329l5.328,5.329l-5.328,5.33L142.171,26.676z M170.312,65.472l11.297-11.297
			c0.426-0.426,0.426-0.852,0-1.278l-11.297-11.298l18.971-18.975c13.641,18.334,13.641,43.703,0,62.034L170.312,65.472z
			 M113.391,52.897c-0.426,0.426-0.426,0.852,0,1.278l11.299,11.297l-18.972,18.975c-13.645-18.335-13.645-43.702,0-62.036
			l18.972,18.973L113.391,52.897z M131.726,72.293l-19.188,19.186c-1.918-1.703-3.622-3.622-5.328-5.541l19.187-19.187
			L131.726,72.293z M140.892,81.675l5.328,5.331l-15.562,15.563c-2.557-0.855-5.117-1.921-7.461-3.2L140.892,81.675z
			 M169.029,40.105l-5.329-5.33l19.187-19.186c1.921,1.706,3.626,3.625,5.329,5.542L169.029,40.105z M148.992,20.066l15.56-15.562
			c2.56,0.853,5.12,1.918,7.464,3.199l-17.693,17.693L148.992,20.066z M132.578,3.651c9.806-2.983,20.251-2.983,29.844,0
			l-14.921,14.922L132.578,3.651z"/>
	</g>
	<g>
		<path fill="#303337" d="M13.837,153.977H13.41c-5.329-1.492-7.673-2.562-7.673-6.61c0-3.412,2.129-5.541,5.755-5.541
			c0,0,7.46,0,9.593,6.181v0.212h2.345v-9.167h-2.345l-0.852,3.414c-2.134-2.132-5.33-3.414-8.314-3.414
			c-6.182,0-10.445,3.837-10.445,9.382c0,6.182,5.326,8.101,11.085,9.593c5.756,1.492,8.313,2.556,8.313,6.822
			c0,3.838-2.985,5.541-5.968,5.541c-4.478,0.218-8.74-2.133-11.085-5.97v-0.212H1.474v9.379h2.345l1.063-4.049
			c2.56,2.555,6.185,4.049,9.809,4.049c6.182,0,10.659-4.261,10.659-10.02C25.134,156.959,20.019,155.682,13.837,153.977z"/>
		<path fill="#303337" d="M30.037,146.088h2.345v-0.64c0.641-3.838,0.855-3.838,3.626-3.838h5.967v28.996h-3.196v2.768h11.297
			v-2.768h-3.197V141.61h5.756c2.771,0,2.986,0,3.627,3.622v0.642h2.344v-7.245H29.826v7.459H30.037z"/>
		<path fill="#303337" d="M83.543,146.088h2.345v-0.64c0.64-3.838,0.854-3.838,3.626-3.838h5.97v28.996h-3.195v2.768h11.295v-2.768
			h-3.198V141.61h5.759c2.77,0,2.985,0,3.623,3.622v0.642h2.344v-7.245H83.332v7.459H83.543z"/>
		<polygon fill="#303337" points="65.427,141.61 68.623,141.61 68.623,170.606 65.427,170.606 65.427,173.374 76.725,173.374 
			76.725,170.606 73.527,170.606 73.527,141.61 76.725,141.61 76.725,138.839 65.427,138.839 		"/>
		<polygon fill="#303337" points="173.508,141.61 176.916,141.61 176.916,155.682 160.716,155.682 160.716,141.61 163.7,141.61 
			163.7,138.839 152.399,138.839 152.399,141.61 155.812,141.61 155.812,170.606 152.614,170.606 152.614,173.374 163.911,173.374 
			163.911,170.606 160.716,170.606 160.716,158.454 176.916,158.454 176.916,170.606 173.508,170.606 173.508,173.374 
			184.805,173.374 184.805,170.606 181.82,170.606 181.82,141.61 184.805,141.61 184.805,138.839 173.508,138.839 		"/>
		<polygon fill="#303337" points="243.854,141.61 247.055,141.61 247.055,170.606 243.854,170.606 243.854,173.374 255.151,173.374 
			255.151,170.606 251.954,170.606 251.954,141.61 255.151,141.61 255.151,138.839 243.854,138.839 		"/>
		<polygon fill="#303337" points="293.526,141.61 293.526,138.839 282.229,138.839 282.229,141.61 284.996,141.61 277.537,152.056 
			270.501,141.61 273.273,141.61 273.273,138.839 261.974,138.839 261.974,141.61 265.171,141.61 274.979,156.322 265.171,170.606 
			261.762,170.606 261.762,173.374 273.063,173.374 273.063,170.606 269.438,170.606 276.899,159.307 284.573,170.606 
			281.589,170.606 281.589,173.374 292.886,173.374 292.886,170.606 289.903,170.606 279.667,155.251 289.049,141.61 		"/>
		<path fill="#303337" d="M211.45,141.61h3.415v28.996h-3.415v2.768h11.3v-2.768h-2.984v-12.152h5.33
			c1.918,0,2.133,0.212,2.772,2.127v0.219v0.212h2.346v-8.742h-2.346v0.215l-0.214,0.423c-0.641,1.707-0.855,2.344-2.771,2.344
			h-5.329v-14.066h11.723c2.344,0,2.772,0.641,4.051,3.838v0.21h2.56v-7.034h-26.86L211.45,141.61z"/>
		<path fill="#303337" d="M142.171,159.729c-1.067,6.61-4.689,10.447-10.233,10.447c-6.609,0-10.66-5.541-10.66-14.495
			c0-8.527,4.051-14.071,10.234-14.071c5.97,0,9.166,3.838,10.659,7.036v0.212h2.344v-10.229h-2.56l-0.852,3.622
			c-2.559-2.559-5.756-3.838-9.382-3.622c-8.952,0-15.56,7.459-15.56,17.263c0,5.12,1.492,9.385,4.479,12.582
			c2.767,2.985,6.818,4.9,10.871,4.689c7.885,0,12.789-4.907,13.855-13.646v-0.423h-2.986L142.171,159.729z"/>
	</g>
</g>
</svg>
