<svg width="817" height="159" viewBox="0 0 817 159" fill="none" xmlns="http://www.w3.org/2000/svg">
<path d="M10 149L125.413 10.2154" stroke="#adadad" stroke-width="20" stroke-linecap="round"/>
<path d="M115 149L115 159L135 159L135 149L115 149ZM135 10C135 4.47716 130.523 -1.10213e-08 125 0C119.477 1.10213e-08 115 4.47716 115 10L135 10ZM135 149L135 10L115 10L115 149L135 149Z" fill="#adadad"/>
<path d="M125 139H115V159H125V139ZM158.957 0C153.434 0 148.957 4.47715 148.957 10C148.957 15.5228 153.434 20 158.957 20V0ZM235.178 74.982L245.157 74.3319L235.178 74.982ZM125 159H165.825V139H125V159ZM165.825 0H158.957V20H165.825V0ZM245.157 74.3319C242.433 32.5203 207.725 0 165.825 0V20C197.184 20 223.161 44.3391 225.199 75.6321L245.157 74.3319ZM165.825 159C211.765 159 248.143 120.175 245.157 74.3319L225.199 75.6321C227.434 109.942 200.208 139 165.825 139V159Z" fill="#adadad"/>
<path d="M388.35 95.45H361.1L355.6 113H347.05L369.45 44.15H380.55L402.95 113H393.85L388.35 95.45ZM363.35 88.25H386.1L374.8 51.45L363.35 88.25ZM415.011 113V60.35H422.161L422.811 67.65C424.944 64.95 427.611 62.8833 430.811 61.45C434.044 59.9833 437.178 59.25 440.211 59.25C445.378 59.25 449.128 60.6167 451.461 63.35C453.828 66.0833 455.011 69.8833 455.011 74.75V113H446.611V80.95C446.611 77.35 446.411 74.45 446.011 72.25C445.611 70.0167 444.778 68.4 443.511 67.4C442.244 66.3667 440.278 65.85 437.611 65.85C435.544 65.85 433.594 66.3 431.761 67.2C429.961 68.1 428.344 69.2333 426.911 70.6C425.511 71.9333 424.344 73.2833 423.411 74.65V113H415.011ZM474.972 113V60.35H482.122L482.772 67.65C484.905 64.95 487.572 62.8833 490.772 61.45C494.005 59.9833 497.139 59.25 500.172 59.25C505.339 59.25 509.089 60.6167 511.422 63.35C513.789 66.0833 514.972 69.8833 514.972 74.75V113H506.572V80.95C506.572 77.35 506.372 74.45 505.972 72.25C505.572 70.0167 504.739 68.4 503.472 67.4C502.205 66.3667 500.239 65.85 497.572 65.85C495.505 65.85 493.555 66.3 491.722 67.2C489.922 68.1 488.305 69.2333 486.872 70.6C485.472 71.9333 484.305 73.2833 483.372 74.65V113H474.972ZM572.633 101.5C572.633 103.6 572.983 105.133 573.683 106.1C574.383 107.067 575.466 107.783 576.933 108.25L574.883 114.15C572.616 113.85 570.633 113.133 568.933 112C567.233 110.833 565.999 109.083 565.233 106.75C563.333 109.183 560.966 111.033 558.133 112.3C555.299 113.533 552.166 114.15 548.733 114.15C543.466 114.15 539.316 112.667 536.283 109.7C533.249 106.733 531.733 102.8 531.733 97.9C531.733 92.4667 533.849 88.3 538.083 85.4C542.316 82.5 548.433 81.05 556.433 81.05H564.183V76.65C564.183 72.85 563.066 70.1667 560.833 68.6C558.633 67 555.566 66.2 551.633 66.2C549.899 66.2 547.866 66.4167 545.533 66.85C543.199 67.25 540.666 67.9333 537.933 68.9L535.733 62.55C538.966 61.35 541.999 60.5 544.833 60C547.666 59.5 550.366 59.25 552.933 59.25C559.499 59.25 564.416 60.7833 567.683 63.85C570.983 66.8833 572.633 71.0167 572.633 76.25V101.5ZM550.883 107.75C553.483 107.75 555.966 107.1 558.333 105.8C560.699 104.467 562.649 102.633 564.183 100.3V86.75H556.583C550.783 86.75 546.683 87.75 544.283 89.75C541.916 91.75 540.733 94.4333 540.733 97.8C540.733 101.067 541.566 103.55 543.233 105.25C544.933 106.917 547.483 107.75 550.883 107.75ZM690.805 78.25C690.805 72.25 690.171 67.45 688.905 63.85C687.638 60.25 685.971 57.55 683.905 55.75C681.838 53.95 679.571 52.75 677.105 52.15C674.671 51.55 672.271 51.25 669.905 51.25H661.805V106.05H670.005C672.471 106.05 674.921 105.667 677.355 104.9C679.821 104.1 682.071 102.7 684.105 100.7C686.138 98.6667 687.755 95.85 688.955 92.25C690.188 88.6167 690.805 83.95 690.805 78.25ZM700.055 78.25C700.055 83.9833 699.438 88.8833 698.205 92.95C697.005 96.9833 695.355 100.317 693.255 102.95C691.155 105.583 688.755 107.633 686.055 109.1C683.388 110.533 680.571 111.55 677.605 112.15C674.671 112.717 671.788 113 668.955 113H653.155V44.15H667.855C671.888 44.15 675.805 44.6 679.605 45.5C683.438 46.4 686.888 48.0667 689.955 50.5C693.055 52.9 695.505 56.3333 697.305 60.8C699.138 65.2667 700.055 71.0833 700.055 78.25ZM752.516 101.5C752.516 103.6 752.866 105.133 753.566 106.1C754.266 107.067 755.349 107.783 756.816 108.25L754.766 114.15C752.499 113.85 750.516 113.133 748.816 112C747.116 110.833 745.882 109.083 745.116 106.75C743.216 109.183 740.849 111.033 738.016 112.3C735.182 113.533 732.049 114.15 728.616 114.15C723.349 114.15 719.199 112.667 716.166 109.7C713.132 106.733 711.616 102.8 711.616 97.9C711.616 92.4667 713.732 88.3 717.966 85.4C722.199 82.5 728.316 81.05 736.316 81.05H744.066V76.65C744.066 72.85 742.949 70.1667 740.716 68.6C738.516 67 735.449 66.2 731.516 66.2C729.782 66.2 727.749 66.4167 725.416 66.85C723.082 67.25 720.549 67.9333 717.816 68.9L715.616 62.55C718.849 61.35 721.882 60.5 724.716 60C727.549 59.5 730.249 59.25 732.816 59.25C739.382 59.25 744.299 60.7833 747.566 63.85C750.866 66.8833 752.516 71.0167 752.516 76.25V101.5ZM730.766 107.75C733.366 107.75 735.849 107.1 738.216 105.8C740.582 104.467 742.532 102.633 744.066 100.3V86.75H736.466C730.666 86.75 726.566 87.75 724.166 89.75C721.799 91.75 720.616 94.4333 720.616 97.8C720.616 101.067 721.449 103.55 723.116 105.25C724.816 106.917 727.366 107.75 730.766 107.75ZM801.427 60.35V106.35H816.277V113H776.777V106.35H793.027V67H777.277V60.35H801.427ZM794.727 35.7C796.593 35.7 798.077 36.2667 799.177 37.4C800.31 38.5333 800.877 39.9167 800.877 41.55C800.877 43.25 800.31 44.6833 799.177 45.85C798.077 46.9833 796.593 47.55 794.727 47.55C792.96 47.55 791.51 46.9833 790.377 45.85C789.243 44.6833 788.677 43.25 788.677 41.55C788.677 39.9167 789.243 38.5333 790.377 37.4C791.51 36.2667 792.96 35.7 794.727 35.7Z" fill="#adadad"/>
</svg>
